<svg xmlns="http://www.w3.org/2000/svg" fill="none" viewBox="0 0 1440 602" height="602" width="1440">
<path fill="#EFF1F7" d="M444.13 455.593C434.209 458.851 422.376 465.045 423.026 475.46C423.761 487.273 439.166 490.975 450.989 491.427C524.882 494.233 598.773 497.038 672.666 499.843C771.783 503.611 871.856 507.313 969.407 489.363C985.777 486.352 1005.58 478.973 1007.03 462.397C1007.96 451.834 1000.06 442.086 990.508 437.479C980.965 432.864 970.04 432.28 959.445 431.786C922.587 430.042 885.728 428.306 848.868 426.562C814.821 424.958 776.393 428.018 743.126 420.491C682.391 406.761 617.862 415.753 556.551 426.998C518.467 433.991 480.948 443.632 444.13 455.593Z"></path>
<path fill="#FB8266" d="M1007.11 361.188C995.674 348.355 1005.29 338.097 1007 318.855C1008.71 299.614 994.893 289.355 978.786 289.355C963.921 289.355 948.85 299.614 950.561 318.855C952.272 338.097 961.889 348.355 950.454 361.188C939.018 374.013 930.467 412.126 978.786 412.126C1027.1 412.126 1018.54 374.013 1007.11 361.188Z"></path>
<path fill="#BDCAF9" d="M978.785 453.694C978.324 453.694 977.962 453.324 977.962 452.872V323.495C977.962 323.043 978.324 322.673 978.785 322.673C979.237 322.673 979.607 323.043 979.607 323.495V452.872C979.607 453.324 979.237 453.694 978.785 453.694Z"></path>
<path fill="#BDCAF9" d="M977.716 344.751C975.272 344.751 969.489 344.373 965.837 340.975C963.78 339.05 962.735 336.483 962.735 333.333C962.735 332.88 963.097 332.51 963.558 332.51C964.01 332.51 964.381 332.88 964.381 333.333C964.381 336.006 965.244 338.17 966.955 339.766C971.044 343.575 978.653 343.081 978.719 343.081C979.18 343.04 979.567 343.394 979.599 343.846C979.632 344.299 979.295 344.693 978.843 344.718C978.769 344.726 978.357 344.751 977.716 344.751Z"></path>
<path fill="#BDCAF9" d="M980.751 385.629C979.566 385.629 978.801 385.547 978.694 385.538C978.242 385.489 977.913 385.086 977.962 384.634C978.011 384.181 978.423 383.852 978.867 383.901C978.957 383.91 988.039 384.823 993.641 379.788C996.586 377.139 998.084 373.281 998.084 368.321C998.084 367.868 998.446 367.498 998.906 367.498C999.359 367.498 999.729 367.868 999.729 368.321C999.729 373.775 998.043 378.044 994.727 381.022C990.236 385.053 983.967 385.629 980.751 385.629Z"></path>
<path fill="#C2CEF9" d="M634.891 327.551C621.167 312.118 632.735 299.803 634.815 276.687C636.894 253.563 620.306 241.215 600.942 241.198C583.082 241.182 564.964 253.489 566.995 276.613C569.025 299.737 580.567 312.077 566.81 327.477C553.053 342.876 542.728 388.673 600.786 388.73C658.843 388.788 648.616 342.975 634.891 327.551Z"></path>
<path fill="#87A0F9" d="M600.734 438.508H600.733C600.279 438.508 599.911 438.138 599.911 437.685L600.076 282.223C600.076 281.762 600.445 281.4 600.899 281.4H600.9C601.354 281.4 601.722 281.77 601.722 282.223L601.556 437.685C601.556 438.138 601.188 438.508 600.734 438.508Z"></path>
<path fill="#87A0F9" d="M599.609 307.602C596.72 307.602 589.79 307.149 585.439 303.085C582.997 300.815 581.762 297.763 581.766 294.028C581.766 293.567 582.134 293.205 582.588 293.205H582.589C583.043 293.205 583.411 293.576 583.411 294.028C583.407 297.286 584.467 299.935 586.561 301.884C591.532 306.524 600.721 305.932 600.815 305.923C601.272 305.89 601.661 306.236 601.693 306.688C601.725 307.141 601.384 307.536 600.93 307.569C600.846 307.569 600.366 307.602 599.609 307.602Z"></path>
<path fill="#87A0F9" d="M603.233 356.721C601.795 356.721 600.862 356.622 600.732 356.614C600.28 356.556 599.955 356.153 600.004 355.701C600.053 355.248 600.456 354.919 600.911 354.977C601.022 354.985 612.002 356.095 618.791 350.016C622.374 346.8 624.194 342.127 624.201 336.114C624.202 335.653 624.57 335.291 625.024 335.291H625.025C625.479 335.291 625.847 335.661 625.846 336.114C625.839 342.621 623.833 347.713 619.881 351.242C614.536 356.03 607.079 356.721 603.233 356.721Z"></path>
<path fill="#D4E0FF" d="M822.288 453.546H643.568C634.481 453.546 627.115 446.183 627.115 437.093V116.453C627.115 107.363 634.481 100 643.568 100H822.288C831.375 100 838.741 107.363 838.741 116.453V437.093C838.741 446.183 831.375 453.546 822.288 453.546Z"></path>
<path fill="#EBF1FF" d="M838.741 428.842H627.115V130.841H838.741V428.842Z"></path>
<path fill="#87A0F9" d="M851.252 264.38H721.487C712.4 264.38 705.034 271.751 705.034 280.833V312.595C705.034 321.685 712.4 329.048 721.487 329.048H819.675L840.149 349.523C841.704 351.078 844.362 349.976 844.362 347.779V329.048H851.252C860.339 329.048 867.705 321.685 867.705 312.595V280.833C867.705 271.751 860.339 264.38 851.252 264.38Z"></path>
<path fill="#BDCAF9" d="M761.92 285.982H723.434C722.16 285.982 721.128 284.954 721.128 283.679C721.128 282.404 722.16 281.376 723.434 281.376H761.92C763.194 281.376 764.226 282.404 764.226 283.679C764.226 284.954 763.194 285.982 761.92 285.982Z"></path>
<path fill="#BDCAF9" d="M798.05 285.982H773.809C772.535 285.982 771.503 284.954 771.503 283.679C771.503 282.404 772.535 281.376 773.809 281.376H798.05C799.323 281.376 800.355 282.404 800.355 283.679C800.355 284.954 799.323 285.982 798.05 285.982Z"></path>
<path fill="#BDCAF9" d="M759.385 298.28H723.434C722.16 298.28 721.128 297.252 721.128 295.977C721.128 294.702 722.16 293.673 723.434 293.673H759.385C760.658 293.673 761.691 294.702 761.691 295.977C761.691 297.252 760.658 298.28 759.385 298.28Z"></path>
<path fill="#BDCAF9" d="M839.233 298.28H771.275C770 298.28 768.969 297.252 768.969 295.977C768.969 294.702 770 293.673 771.275 293.673H839.233C840.507 293.673 841.54 294.702 841.54 295.977C841.54 297.252 840.507 298.28 839.233 298.28Z"></path>
<path fill="#BDCAF9" d="M781.813 311.353H723.434C722.16 311.353 721.128 310.316 721.128 309.049C721.128 307.774 722.16 306.738 723.434 306.738H781.813C783.087 306.738 784.119 307.774 784.119 309.049C784.119 310.316 783.087 311.353 781.813 311.353Z"></path>
<path fill="#BDCAF9" d="M827.436 311.353H793.736C792.462 311.353 791.43 310.316 791.43 309.049C791.43 307.774 792.462 306.738 793.736 306.738H827.436C828.71 306.738 829.742 307.774 829.742 309.049C829.742 310.316 828.71 311.353 827.436 311.353Z"></path>
<path fill="#87A0F9" d="M859.478 111.674H770.845C761.758 111.674 754.393 119.037 754.393 128.127V159.889C754.393 168.971 761.758 176.342 770.845 176.342H827.901L848.376 196.817C849.931 198.372 852.589 197.27 852.589 195.073V176.342H859.478C868.565 176.342 875.931 168.971 875.931 159.889V128.127C875.931 119.037 868.565 111.674 859.478 111.674Z"></path>
<path fill="#BDCAF9" d="M796.277 133.095H774.243C772.97 133.095 771.938 132.058 771.938 130.791C771.938 129.516 772.97 128.48 774.243 128.48H796.277C797.551 128.48 798.584 129.516 798.584 130.791C798.584 132.058 797.551 133.095 796.277 133.095Z"></path>
<path fill="#BDCAF9" d="M832.408 133.095H808.167C806.894 133.095 805.861 132.058 805.861 130.791C805.861 129.516 806.894 128.48 808.167 128.48H832.408C833.681 128.48 834.714 129.516 834.714 130.791C834.714 132.058 833.681 133.095 832.408 133.095Z"></path>
<path fill="#BDCAF9" d="M793.741 145.393H774.243C772.97 145.393 771.938 144.364 771.938 143.089C771.938 141.814 772.97 140.786 774.243 140.786H793.741C795.015 140.786 796.047 141.814 796.047 143.089C796.047 144.364 795.015 145.393 793.741 145.393Z"></path>
<path fill="#BDCAF9" d="M848.911 145.393H805.631C804.358 145.393 803.325 144.364 803.325 143.089C803.325 141.814 804.358 140.786 805.631 140.786H848.911C850.185 140.786 851.217 141.814 851.217 143.089C851.217 144.364 850.185 145.393 848.911 145.393Z"></path>
<path fill="#BDCAF9" d="M816.17 158.464H774.243C772.97 158.464 771.938 157.427 771.938 156.152C771.938 154.885 772.97 153.849 774.243 153.849H816.17C817.444 153.849 818.476 154.885 818.476 156.152C818.476 157.427 817.444 158.464 816.17 158.464Z"></path>
<path fill="#BDCAF9" d="M837.114 158.464H828.093C826.82 158.464 825.787 157.427 825.787 156.152C825.787 154.885 826.82 153.849 828.093 153.849H837.114C838.388 153.849 839.42 154.885 839.42 156.152C839.42 157.427 838.388 158.464 837.114 158.464Z"></path>
<path fill="#FB8266" d="M624.268 340.079H712.902C721.989 340.079 729.355 347.442 729.355 356.532V388.294C729.355 397.376 721.989 404.747 712.902 404.747H655.846L635.371 425.214C633.817 426.777 631.158 425.675 631.158 423.47V404.747H624.268C615.182 404.747 607.815 397.376 607.815 388.294V356.532C607.815 347.442 615.182 340.079 624.268 340.079Z"></path>
<path fill="#87A0F9" d="M653.285 361.113H631.251C629.977 361.113 628.945 360.085 628.945 358.81C628.945 357.535 629.977 356.507 631.251 356.507H653.285C654.558 356.507 655.591 357.535 655.591 358.81C655.591 360.085 654.558 361.113 653.285 361.113Z"></path>
<path fill="#87A0F9" d="M689.414 361.113H665.174C663.9 361.113 662.867 360.085 662.867 358.81C662.867 357.535 663.9 356.507 665.174 356.507H689.414C690.688 356.507 691.72 357.535 691.72 358.81C691.72 360.085 690.688 361.113 689.414 361.113Z"></path>
<path fill="#87A0F9" d="M650.749 373.421H631.251C629.977 373.421 628.945 372.384 628.945 371.109C628.945 369.834 629.977 368.806 631.251 368.806H650.749C652.023 368.806 653.055 369.834 653.055 371.109C653.055 372.384 652.023 373.421 650.749 373.421Z"></path>
<path fill="#87A0F9" d="M705.919 373.421H662.64C661.365 373.421 660.333 372.384 660.333 371.109C660.333 369.834 661.365 368.806 662.64 368.806H705.919C707.193 368.806 708.225 369.834 708.225 371.109C708.225 372.384 707.193 373.421 705.919 373.421Z"></path>
<path fill="#87A0F9" d="M673.178 386.483H631.251C629.977 386.483 628.945 385.455 628.945 384.18C628.945 382.905 629.977 381.877 631.251 381.877H673.178C674.451 381.877 675.484 382.905 675.484 384.18C675.484 385.455 674.451 386.483 673.178 386.483Z"></path>
<path fill="#87A0F9" d="M694.121 386.483H685.1C683.826 386.483 682.794 385.455 682.794 384.18C682.794 382.905 683.826 381.877 685.1 381.877H694.121C695.394 381.877 696.427 382.905 696.427 384.18C696.427 385.455 695.394 386.483 694.121 386.483Z"></path>
<path fill="#FB8266" d="M614.364 418.664H744.129C753.216 418.664 760.582 426.027 760.582 435.117V466.879C760.582 475.961 753.216 483.332 744.129 483.332H645.942L625.467 503.808C623.912 505.362 621.254 504.26 621.254 502.064V483.332H614.364C605.278 483.332 597.911 475.961 597.911 466.879V435.117C597.911 426.027 605.278 418.664 614.364 418.664Z"></path>
<path fill="#87A0F9" d="M669.738 206.786H631.251C629.977 206.786 628.945 205.75 628.945 204.475C628.945 203.199 629.977 202.171 631.251 202.171H669.738C671.011 202.171 672.043 203.199 672.043 204.475C672.043 205.75 671.011 206.786 669.738 206.786Z"></path>
<path fill="#87A0F9" d="M705.867 206.786H681.627C680.353 206.786 679.32 205.75 679.32 204.475C679.32 203.199 680.353 202.171 681.627 202.171H705.867C707.141 202.171 708.174 203.199 708.174 204.475C708.174 205.75 707.141 206.786 705.867 206.786Z"></path>
<path fill="#87A0F9" d="M667.201 219.085H631.251C629.977 219.085 628.945 218.048 628.945 216.773C628.945 215.506 629.977 214.47 631.251 214.47H667.201C668.476 214.47 669.508 215.506 669.508 216.773C669.508 218.048 668.476 219.085 667.201 219.085Z"></path>
<path fill="#87A0F9" d="M747.051 219.085H679.093C677.819 219.085 676.786 218.048 676.786 216.773C676.786 215.506 677.819 214.47 679.093 214.47H747.051C748.325 214.47 749.357 215.506 749.357 216.773C749.357 218.048 748.325 219.085 747.051 219.085Z"></path>
<path fill="#87A0F9" d="M689.631 232.148H631.251C629.977 232.148 628.945 231.12 628.945 229.845C628.945 228.57 629.977 227.542 631.251 227.542H689.631C690.904 227.542 691.936 228.57 691.936 229.845C691.936 231.12 690.904 232.148 689.631 232.148Z"></path>
<path fill="#87A0F9" d="M735.252 232.148H701.552C700.278 232.148 699.246 231.12 699.246 229.845C699.246 228.57 700.278 227.542 701.552 227.542H735.252C736.526 227.542 737.558 228.57 737.558 229.845C737.558 231.12 736.526 232.148 735.252 232.148Z"></path>
<path fill="#666666" d="M553.773 458.424C553.773 458.424 565.617 464.906 571.186 466.058C576.753 467.201 578.391 470.64 572.823 472.277C567.255 473.914 556.446 470.969 550.223 470.969C544 470.969 541.216 472.442 538.432 471.463C535.648 470.476 538.056 462.71 538.056 462.71L553.773 458.424Z"></path>
<path fill="#666666" d="M495.191 459.608C495.191 459.608 499.293 466.214 502.896 469.488C506.498 472.762 509.774 476.044 498.147 476.859C486.519 477.681 479.477 474.251 478.331 471.948C477.184 469.652 479.188 459.608 479.188 459.608H495.191Z"></path>
<path fill="#3D3D3D" d="M526.703 234.674C526.703 234.674 523.189 239.577 521.304 231.029C519.418 222.482 512.121 216.386 515.012 209.345C517.903 202.303 523.409 203.438 523.409 203.438C523.409 203.438 523.685 195.269 530.977 195.269C538.268 195.269 543.548 198.28 547.696 196.898C551.844 195.516 558.256 192.374 559.89 195.269C561.524 198.157 558.759 202.303 556.999 202.936C556.999 202.936 562.53 200.682 562.404 204.573C562.279 208.464 554.862 212.989 547.194 213.622C539.525 214.247 530.285 214.601 530.285 214.601L526.703 234.674Z"></path>
<path fill="#3D3D3D" d="M560.371 315.063C560.371 315.063 560.838 319.735 560.371 323.001C560.371 323.001 563.489 329.048 563.489 339.437C563.489 349.836 555.774 439.849 553.773 458.424C553.773 458.424 546.915 462.43 538.056 462.71C538.056 462.71 533.198 420.994 533.198 402.986C533.198 384.987 531.483 364.125 531.483 364.125C531.483 364.125 523.345 394.127 513.84 417.564C504.336 440.992 495.19 459.609 495.19 459.609C495.19 459.609 488.332 465.614 479.188 459.609C479.188 459.609 487.761 417.564 490.333 402.698C492.904 387.842 503.305 327.781 509.362 323.223C509.362 323.223 508.893 318.279 510.066 315.063H560.371Z"></path>
<path fill="#FAAEB1" d="M550.678 208.801C550.678 208.801 553.769 218.138 552.663 226.718C551.555 235.298 548.787 241.805 545.327 242.217C541.866 242.636 528.856 240.563 526.642 232.115C524.427 223.674 522.905 215.925 524.151 211.22C525.396 206.514 533.424 204.573 536.884 204.573C540.344 204.573 550.678 208.801 550.678 208.801Z"></path>
<path fill="#FAAEB1" d="M528.5 230.511C528.5 230.511 526.907 233.382 523.702 232.362C520.499 231.334 516.806 226.998 518.959 223.42C521.114 219.841 526.551 222.202 526.551 222.202L528.5 230.511Z"></path>
<path fill="#3D3D3D" d="M545.557 230.619C545.345 230.619 545.165 230.455 545.148 230.241C545.13 230.01 545.298 229.813 545.525 229.797C547.905 229.607 549.601 229.031 549.582 228.735C549.426 226.226 545.611 220.41 545.572 220.353C545.447 220.155 545.5 219.9 545.69 219.777C545.879 219.653 546.135 219.703 546.259 219.9C546.421 220.139 550.233 225.955 550.404 228.678C550.49 230.076 547.066 230.504 545.59 230.619H545.557Z"></path>
<path fill="#FB8266" d="M548.24 233.028C548.24 233.028 544.306 235.11 538.941 233.604C538.941 233.604 539.436 239.297 543.59 239.297C547.745 239.297 548.24 233.028 548.24 233.028Z"></path>
<path fill="#3D3D3D" d="M538.603 225.576C538.394 225.576 538.215 225.42 538.194 225.206L537.709 220.41C537.686 220.18 537.851 219.982 538.077 219.958C538.307 219.941 538.505 220.097 538.528 220.328L539.012 225.124C539.035 225.346 538.87 225.551 538.644 225.576H538.603Z"></path>
<path fill="#3D3D3D" d="M549.992 224.449C549.787 224.449 549.61 224.293 549.584 224.087L549.023 219.456C548.995 219.225 549.156 219.02 549.382 218.995C549.609 218.97 549.812 219.127 549.839 219.357L550.401 223.989C550.428 224.211 550.268 224.416 550.043 224.449H549.992Z"></path>
<path fill="#FAAEB1" d="M541.663 240.646C541.663 240.646 541.411 243.286 541.663 246.429C541.914 249.571 543.297 256.358 536.76 256.86C530.223 257.37 525.195 251.587 525.07 247.688C524.944 243.788 525.07 230.338 525.07 230.338H531.606L541.663 240.646Z"></path>
<path fill="#3D3D3D" d="M530.223 212.61C530.223 212.61 530.918 226.949 527.678 227.007C524.44 227.072 521.8 217.011 521.8 217.011L530.223 212.61Z"></path>
<path fill="#E66344" d="M541.572 242.276C541.572 242.276 543.956 243.172 546.38 246.142C546.38 246.142 559.91 246.603 573.208 252.444C586.508 258.276 603.773 237.686 605.174 234.675L612.965 238.352C612.965 238.352 612.349 279.262 563.891 281.154C563.891 281.154 567.203 312.151 560.715 317.021C554.226 321.883 514.682 320.468 509.613 317.021C504.543 313.574 506.166 302.822 506.166 302.822C506.166 302.822 495.565 321.948 493.784 338.122C493.784 338.122 489.927 341.091 482.361 338.122C482.361 338.122 478.558 308.284 487.421 280.109C496.283 251.925 518.319 246.019 518.319 246.019C518.319 246.019 521.023 239.701 525.021 238.031C525.021 238.031 525.413 250.667 537.315 254.336C537.315 254.336 542.155 252.978 541.572 242.276Z"></path>
<path fill="#FAAEB1" d="M605.172 234.673C605.172 234.673 602.828 231.309 602.828 227.006C602.828 222.704 607.198 223.584 607.198 223.584C607.198 223.584 608.427 216.699 610.612 212.059C612.797 207.411 615.118 207.411 614.709 211.376C614.299 215.333 611.978 219.808 611.978 219.808C611.978 219.808 621.946 222.572 621.81 225.986C621.673 229.4 621.324 235.965 612.963 238.351L605.172 234.673Z"></path>
<path fill="#FAC8CA" d="M611.122 234.106H611.085C610.858 234.082 610.691 233.884 610.712 233.654C611.012 230.38 607.093 228.858 607.054 228.842C606.864 228.768 606.755 228.57 606.797 228.373C606.84 228.167 607.011 228.035 607.225 228.044C607.257 228.052 610.62 228.233 613.105 226.662C613.668 226.308 613.842 226.036 613.818 225.897C613.678 225.099 609.977 224.292 608.585 223.988C608.363 223.939 608.222 223.725 608.27 223.503C608.319 223.281 608.539 223.141 608.76 223.19C612.412 223.98 614.429 224.621 614.629 225.757C614.775 226.579 613.849 227.163 613.544 227.361C611.952 228.364 610.085 228.71 608.785 228.825C610.084 229.672 611.758 231.26 611.531 233.728C611.512 233.942 611.332 234.106 611.122 234.106Z"></path>
<path fill="#BDCAF9" d="M563.89 281.564H563.887C563.66 281.564 563.477 281.375 563.478 281.153C563.552 269.307 560.205 257.124 560.171 257.009C560.111 256.787 560.239 256.556 560.458 256.499C560.674 256.441 560.903 256.564 560.964 256.787C560.998 256.91 564.376 269.2 564.301 281.153C564.299 281.383 564.116 281.564 563.89 281.564Z"></path>
<path fill="#BDCAF9" d="M506.165 303.232L505.989 303.191C505.784 303.093 505.696 302.854 505.794 302.648C510.17 293.435 516.784 279.516 511.386 265.802C511.303 265.588 511.407 265.35 511.619 265.268C511.828 265.185 512.068 265.284 512.152 265.498C517.68 279.549 510.975 293.657 506.537 303.002C506.466 303.15 506.319 303.232 506.165 303.232Z"></path>
<path fill="#626262" d="M518.623 324.317C515.191 324.317 512.524 324.26 511.69 324.103C511.467 324.054 511.322 323.84 511.365 323.618C511.409 323.396 511.623 323.248 511.847 323.289C513.536 323.618 523.955 323.478 531.563 323.363C534.574 323.322 537.177 323.281 538.695 323.281C543.899 323.281 555.627 323.059 558.665 322.359C558.886 322.31 559.108 322.442 559.159 322.664C559.21 322.886 559.072 323.108 558.85 323.157C555.743 323.873 543.929 324.103 538.695 324.103C537.18 324.103 534.582 324.145 531.575 324.186C527.305 324.252 522.481 324.317 518.623 324.317Z"></path>
<path fill="#626262" d="M531.483 364.535L531.365 364.519C531.148 364.453 531.024 364.223 531.09 364C533.351 356.498 535.839 350.123 535.864 350.057C535.902 349.966 535.975 349.884 536.069 349.843C536.148 349.802 538.048 348.839 538.048 346.108C538.048 345.162 538.026 344.191 538.002 343.147C537.947 340.777 537.886 338.087 538.049 334.583C538.282 329.565 539.196 328.175 539.3 328.026C539.433 327.845 539.69 327.804 539.875 327.936C540.058 328.068 540.099 328.331 539.965 328.512C539.96 328.52 539.093 329.844 538.87 334.624C538.709 338.096 538.77 340.769 538.824 343.13C538.848 344.183 538.87 345.162 538.87 346.108C538.87 348.938 537.115 350.18 536.576 350.501C536.201 351.472 533.945 357.378 531.877 364.239C531.824 364.42 531.66 364.535 531.483 364.535Z"></path>
<path fill="#626262" d="M526.079 352.509C525.943 352.509 525.878 352.501 525.855 352.501C525.63 352.468 525.47 352.262 525.498 352.04C525.526 351.81 525.733 351.653 525.957 351.678C525.992 351.686 526.987 351.76 531.413 350.979C542.413 349.029 543.212 346.15 543.22 346.117C543.27 345.903 543.484 345.755 543.701 345.804C543.918 345.845 544.064 346.043 544.029 346.265C543.972 346.61 543.143 349.736 531.556 351.793C527.979 352.427 526.57 352.509 526.079 352.509Z"></path>
<path fill="#626262" d="M556.256 407.173C552.198 407.173 550.791 405.297 550.731 405.215C550.663 405.116 550.639 405.001 550.662 404.886C550.686 404.771 550.756 404.672 550.856 404.614C551.976 403.956 553.052 402.525 554.093 401.135C555.111 399.777 556.071 398.494 557.027 398.05C557.235 397.959 557.478 398.05 557.574 398.255C557.669 398.461 557.578 398.708 557.372 398.798C556.605 399.152 555.705 400.353 554.751 401.628C553.789 402.912 552.797 404.236 551.709 405.034C552.299 405.528 553.784 406.449 556.666 406.342C556.872 406.334 557.083 406.515 557.09 406.745C557.098 406.967 556.92 407.165 556.693 407.165C556.544 407.173 556.398 407.173 556.256 407.173Z"></path>
<path fill="#626262" d="M534.906 408.876C534.82 408.876 534.734 408.851 534.661 408.794C534.48 408.662 534.441 408.407 534.575 408.218C534.642 408.127 536.294 405.964 542.745 403.628C546.633 402.221 548.52 400.345 548.376 399.218C548.293 398.577 547.471 398.141 546.119 398.017C541.507 397.598 535.5 390.671 535.246 390.375C535.098 390.21 535.117 389.947 535.289 389.799C535.46 389.651 535.721 389.667 535.87 389.84C535.929 389.914 541.913 396.808 546.194 397.203C548.616 397.417 549.112 398.494 549.192 399.111C549.42 400.888 546.999 402.969 543.024 404.401C536.863 406.63 535.251 408.695 535.236 408.711C535.154 408.818 535.031 408.876 534.906 408.876Z"></path>
<path fill="#626262" d="M504.278 405.635L504.119 405.602L502.945 405.108C500.198 403.965 499.459 403.66 499.47 403.035C499.48 402.484 500.066 402.262 501.484 401.727C502.189 401.464 503.066 401.127 504.113 400.674C505.303 400.148 506.656 399.58 508.078 398.98C512.932 396.948 518.434 394.644 521.085 392.579C521.266 392.44 521.523 392.473 521.662 392.654C521.801 392.834 521.769 393.09 521.591 393.229C518.853 395.36 513.298 397.688 508.396 399.745C506.98 400.337 505.631 400.905 504.444 401.423C503.377 401.892 502.488 402.229 501.773 402.492C501.227 402.698 500.665 402.912 500.399 403.06C500.789 403.323 501.902 403.784 503.261 404.351L504.438 404.845C504.647 404.927 504.745 405.174 504.657 405.38C504.592 405.536 504.439 405.635 504.278 405.635Z"></path>
<path fill="#626262" d="M493.84 395.615C493.693 395.615 493.551 395.533 493.477 395.393C493.369 395.196 493.444 394.949 493.644 394.842C493.753 394.776 504.597 388.952 510.473 386.879C511.635 386.467 511.636 386.171 511.635 386.171C511.592 385.168 505.312 383.547 501.937 382.675C500.159 382.214 498.479 381.787 497.263 381.392C497.046 381.326 496.927 381.096 496.997 380.882C497.066 380.66 497.297 380.544 497.514 380.61C498.707 380.997 500.376 381.425 502.142 381.877C508.517 383.522 512.391 384.633 512.457 386.138C512.492 386.945 511.498 387.389 510.747 387.652C504.931 389.709 494.143 395.508 494.034 395.566L493.84 395.615Z"></path>
<path fill="#626262" d="M505.08 342.661C504.589 342.661 504.3 342.636 504.281 342.628C504.056 342.604 503.893 342.398 503.919 342.176C503.944 341.954 504.147 341.789 504.373 341.814C504.878 341.863 516.778 343.007 520.178 328.174C520.229 327.952 520.449 327.812 520.671 327.87C520.892 327.919 521.03 328.142 520.98 328.364C517.929 341.666 507.98 342.661 505.08 342.661Z"></path>
<path fill="#626262" d="M561.9 341.313C561.821 341.313 561.741 341.297 561.67 341.248C561.449 341.1 556.217 337.472 552.936 327.123C552.868 326.909 552.987 326.679 553.204 326.605C553.42 326.539 553.652 326.662 553.72 326.876C556.915 336.953 562.078 340.532 562.13 340.565C562.318 340.688 562.368 340.943 562.241 341.132C562.161 341.256 562.032 341.313 561.9 341.313Z"></path>
<path fill="#BDCAF9" d="M546.438 273.067C546.541 274.942 546.942 282.305 546.942 283.704C546.942 283.753 546.97 283.926 547.337 284.238C548.912 285.563 553.348 286.747 553.883 286.657C554.614 286.476 558.282 284.131 558.719 283.473C558.965 282.897 558.594 277.583 558.079 272.647C556.444 272.713 550.008 272.96 546.438 273.067ZM553.848 287.479C552.588 287.479 548.473 286.171 546.93 284.97C546.384 284.543 546.119 284.131 546.119 283.704C546.119 282.157 545.599 272.779 545.593 272.688L545.57 272.261L545.993 272.252C549.931 272.146 558.347 271.816 558.431 271.816L558.816 271.8L558.856 272.178C559.204 275.444 559.952 283.111 559.403 283.934C558.812 284.822 554.925 287.241 554.08 287.455C554.02 287.471 553.941 287.479 553.848 287.479Z"></path>
<path fill="#BDCAF9" d="M549.827 275.666C549.13 275.666 548.453 275.65 547.82 275.617C547.593 275.6 547.42 275.411 547.434 275.181C547.448 274.95 547.648 274.778 547.869 274.794C552.166 275.049 558.579 274.292 558.643 274.284C558.867 274.251 559.073 274.416 559.1 274.638C559.127 274.868 558.967 275.074 558.741 275.098C558.686 275.107 553.933 275.666 549.827 275.666Z"></path>
<path fill="#FAAEB1" d="M493.783 338.121C493.783 338.121 497.207 343.303 497.116 347.597C497.024 351.883 494.924 350.732 493.783 346.199C492.643 341.666 491.364 349.111 491.456 352.097C491.548 355.083 492.734 358.646 489.174 358.646C485.614 358.646 482.603 351.974 482.603 347.959C482.603 343.945 483.058 337.191 483.058 337.191L493.783 338.121Z"></path>
<path fill="#3D3D3D" d="M551.73 212.8C551.73 212.8 540.516 214.939 530.285 214.602L523.408 217.16L520.053 210.464L532.752 201.324L548.239 202.846L552.902 207.724L551.73 212.8Z"></path>
<path fill="#BDCAF9" d="M526.653 262.924L526.397 262.85C526.119 262.776 519.565 260.826 517.91 247.08C517.883 246.858 518.044 246.652 518.27 246.627C518.493 246.594 518.7 246.759 518.727 246.981C520.131 258.646 525.215 261.468 526.378 261.97C527.539 260.612 533.525 253.867 537.324 253.924C540.308 253.998 544.28 257.684 545.576 258.967C547.981 253.439 545.953 247.557 545.932 247.499C545.856 247.285 545.968 247.047 546.183 246.973C546.396 246.899 546.632 247.006 546.707 247.22C546.802 247.491 549.003 253.883 546.069 259.864L545.809 260.398L545.401 259.962C545.353 259.913 540.502 254.821 537.306 254.747H537.245C533.489 254.747 526.889 262.636 526.823 262.718L526.653 262.924Z"></path>
<path fill="#666666" d="M885.702 244.159H882.87V226.045H885.702V244.159Z"></path>
<path fill="#666666" d="M932.224 244.159H929.394V226.045H932.224V244.159Z"></path>
<path fill="#666666" d="M879.375 319.406C877.514 318.797 875.502 319.809 874.889 321.668C870.532 334.913 855.75 369.653 838.517 376.283C839.276 378.439 840.544 380.594 841.495 382.741C865.215 373.059 880.957 325.971 881.64 323.89C882.253 322.03 881.24 320.023 879.375 319.406Z"></path>
<path fill="#87A0F9" d="M831.386 394.085L828.444 387.858L836.028 384.271C836.748 383.934 837.293 383.333 837.562 382.584C837.831 381.828 837.79 381.021 837.45 380.298C837.109 379.582 836.509 379.031 835.758 378.767C835.006 378.496 834.197 378.537 833.477 378.874L825.893 382.461L822.949 376.234L830.532 372.655C832.916 371.52 835.597 371.388 838.079 372.285C840.562 373.173 842.549 374.975 843.676 377.361C844.803 379.738 844.934 382.42 844.045 384.904C843.157 387.389 841.354 389.371 838.97 390.498L831.386 394.085Z"></path>
<path fill="#666666" d="M895.642 462.866C895.642 458.646 894.056 454.862 891.555 452.279V448.758H883.64C877.012 448.758 871.639 455.076 871.639 462.866C871.639 470.665 877.012 476.982 883.64 476.982H891.555V473.462C894.056 470.87 895.642 467.094 895.642 462.866Z"></path>
<path fill="#3D3D3D" d="M903.558 462.866C903.558 470.665 898.184 476.982 891.556 476.982C884.928 476.982 879.555 470.665 879.555 462.866C879.555 455.076 884.928 448.758 891.556 448.758C898.184 448.758 903.558 455.076 903.558 462.866Z"></path>
<path fill="#666666" d="M943.316 462.866C943.316 458.646 941.73 454.862 939.23 452.279V448.758H931.315C924.687 448.758 919.313 455.076 919.313 462.866C919.313 470.665 924.687 476.982 931.315 476.982H939.23V473.462C941.73 470.87 943.316 467.094 943.316 462.866Z"></path>
<path fill="#3D3D3D" d="M951.235 462.866C951.235 470.665 945.858 476.982 939.23 476.982C932.602 476.982 927.229 470.665 927.229 462.866C927.229 455.076 932.602 448.758 939.23 448.758C945.858 448.758 951.235 455.076 951.235 462.866Z"></path>
<path fill="#0055FE" d="M861.416 281.433H869.136V256.005H861.416C854.396 256.005 848.705 261.698 848.705 268.715C848.705 275.74 854.396 281.433 861.416 281.433Z"></path>
<path fill="#C4D1FF" d="M861.415 282.255C853.953 282.255 847.882 276.176 847.882 268.714C847.882 268.262 848.25 267.892 848.704 267.892C849.159 267.892 849.527 268.262 849.527 268.714C849.527 275.271 854.86 280.61 861.415 280.61C861.87 280.61 862.238 280.972 862.238 281.432C862.238 281.885 861.87 282.255 861.415 282.255Z"></path>
<path fill="#87A0F9" d="M936.731 240.531H884.433C870.343 240.531 858.921 251.949 858.921 266.041V271.396C858.921 285.48 870.343 296.906 884.433 296.906H936.731C952.296 296.906 964.915 284.287 964.915 268.714C964.915 253.15 952.296 240.531 936.731 240.531Z"></path>
<path fill="#0055FE" d="M953.448 281.433H964.57C971.595 281.433 977.288 275.74 977.288 268.715C977.288 261.698 971.595 256.005 964.57 256.005H953.448C949.598 256.005 946.479 259.123 946.479 262.973V274.465C946.479 278.307 949.598 281.433 953.448 281.433Z"></path>
<path fill="#E3E5EB" d="M925.753 272.721H881.369C875.533 272.721 870.802 267.991 870.802 262.158C870.802 256.317 875.533 251.587 881.369 251.587H925.753C931.59 251.587 936.321 256.317 936.321 262.158C936.321 267.991 931.59 272.721 925.753 272.721Z"></path>
<path fill="#3D3D3D" d="M890.121 262.159C890.121 266.585 886.529 270.18 882.098 270.18C877.666 270.18 874.074 266.585 874.074 262.159C874.074 257.725 877.666 254.13 882.098 254.13C886.529 254.13 890.121 257.725 890.121 262.159Z"></path>
<path fill="#666666" d="M883.265 260.259C883.265 261.954 881.893 263.319 880.201 263.319C878.509 263.319 877.138 261.954 877.138 260.259C877.138 258.564 878.509 257.199 880.201 257.199C881.893 257.199 883.265 258.564 883.265 260.259Z"></path>
<path fill="#3D3D3D" d="M933.729 262.159C933.729 266.585 930.136 270.18 925.705 270.18C921.273 270.18 917.681 266.585 917.681 262.159C917.681 257.725 921.273 254.13 925.705 254.13C930.136 254.13 933.729 257.725 933.729 262.159Z"></path>
<path fill="#0055FE" d="M903.627 293.139C897.119 293.139 891.844 287.866 891.844 281.358V278.438C891.844 277.492 892.615 276.719 893.566 276.719H913.689C914.64 276.719 915.411 277.492 915.411 278.438V281.358C915.411 287.866 910.135 293.139 903.627 293.139Z"></path>
<path fill="#666666" d="M917.68 309.049H894.327V296.907H917.68V309.049Z"></path>
<path fill="#87A0F9" d="M942.781 308.524H884.464C879.211 308.524 874.793 312.464 874.191 317.68L859.442 445.797C858.396 454.896 865.507 462.867 874.66 462.867H951.391C960.547 462.867 967.655 454.896 966.61 445.797L951.72 316.495C951.202 311.954 947.354 308.524 942.781 308.524Z"></path>
<path fill="#0055FE" d="M966.61 445.797L951.72 316.495C951.202 311.954 947.353 308.524 942.781 308.524C939.534 308.524 936.822 310.992 936.522 314.224L924.202 446.859C923.403 455.455 930.165 462.867 938.796 462.867H951.391C960.547 462.867 967.655 454.896 966.61 445.797Z"></path>
<path fill="#E3E5EB" d="M877.549 384.205H920.305C922.05 384.205 923.51 382.881 923.681 381.145L929.235 324.465C929.43 322.474 927.863 320.747 925.859 320.747H883.103C881.358 320.747 879.897 322.071 879.727 323.807L874.173 380.487C873.978 382.478 875.545 384.205 877.549 384.205Z"></path>
<path fill="#666666" d="M964.306 348.15C956.549 334.165 946.958 324.812 946.554 324.417C945.144 323.059 942.895 323.092 941.529 324.507C940.164 325.914 940.201 328.16 941.612 329.525C941.964 329.871 975.535 362.859 964.668 395.016C966.955 395.353 969.209 396.332 971.307 397.558C976.416 382.676 974.03 365.68 964.306 348.15Z"></path>
<path fill="#87A0F9" d="M970.402 414.733L964.175 411.797L967.745 404.212C968.453 402.723 967.811 400.938 966.322 400.238C964.833 399.531 963.048 400.173 962.349 401.662L958.77 409.246L952.543 406.31L956.121 398.725C957.24 396.339 959.231 394.538 961.707 393.649C964.191 392.752 966.873 392.884 969.259 394.003C974.178 396.331 976.301 402.221 973.981 407.149L970.402 414.733Z"></path>
<path fill="#6686F9" d="M875.876 439.89H872.655L877.098 396.504H880.317L875.876 439.89Z"></path>
<path fill="#0055FE" d="M882.705 416.42H870.848C869.995 416.42 869.303 415.729 869.303 414.873V412.233C869.303 411.385 869.995 410.694 870.848 410.694H882.705C883.559 410.694 884.252 411.385 884.252 412.233V414.873C884.252 415.729 883.559 416.42 882.705 416.42Z"></path>
<path fill="#E66344" d="M901.876 401.341C901.876 404.014 899.712 406.178 897.042 406.178C894.37 406.178 892.206 404.014 892.206 401.341C892.206 398.667 894.37 396.504 897.042 396.504C899.712 396.504 901.876 398.667 901.876 401.341Z"></path>
<path fill="#FB8266" d="M918.389 401.341C918.389 404.014 916.224 406.178 913.553 406.178C910.883 406.178 908.719 404.014 908.719 401.341C908.719 398.667 910.883 396.504 913.553 396.504C916.224 396.504 918.389 398.667 918.389 401.341Z"></path>
<path fill="#6686F9" d="M917.272 426.176C917.272 433.753 911.132 439.89 903.557 439.89C895.981 439.89 889.841 433.753 889.841 426.176C889.841 418.6 895.981 412.463 903.557 412.463C911.132 412.463 917.272 418.6 917.272 426.176Z"></path>
<path fill="#0055FE" d="M903.395 366.255H903.38C902.984 366.255 902.648 365.967 902.583 365.572L900.136 351.069L898.038 349.21C897.898 349.086 897.805 348.922 897.773 348.741L896.603 341.987L893.315 360.06C893.246 360.439 892.915 360.727 892.526 360.735C892.115 360.719 891.792 360.48 891.705 360.102L888.854 347.885L886.846 351.892C886.707 352.171 886.422 352.344 886.11 352.344H877.01C876.556 352.344 876.188 351.974 876.188 351.521C876.188 351.069 876.556 350.699 877.01 350.699H885.603L888.404 345.113C888.559 344.8 888.891 344.619 889.235 344.661C889.58 344.702 889.861 344.957 889.94 345.294L892.406 355.865L895.814 337.133C895.885 336.747 896.225 336.459 896.623 336.459H896.626C897.026 336.459 897.365 336.747 897.434 337.142L899.345 348.173L901.445 350.032C901.585 350.156 901.679 350.32 901.711 350.51L903.472 360.949L907.399 341.748C907.477 341.37 907.811 341.099 908.199 341.09H908.205C908.59 341.09 908.925 341.362 909.008 341.74L911.641 353.693L912.796 351.028C912.927 350.732 913.223 350.534 913.55 350.534H926.6C927.054 350.534 927.422 350.904 927.422 351.357C927.422 351.809 927.054 352.18 926.6 352.18H914.091L912.138 356.679C911.997 357 911.679 357.198 911.304 357.165C910.949 357.132 910.657 356.877 910.58 356.523L908.234 345.878L904.2 365.597C904.122 365.983 903.785 366.255 903.395 366.255Z"></path>
<path fill="#FB8266" d="M891.977 221.232C891.977 225.477 888.534 228.924 884.286 228.924C880.038 228.924 876.595 225.477 876.595 221.232C876.595 216.987 880.038 213.54 884.286 213.54C888.534 213.54 891.977 216.987 891.977 221.232Z"></path>
<path fill="#FB8266" d="M938.5 221.232C938.5 225.477 935.056 228.924 930.808 228.924C926.561 228.924 923.117 225.477 923.117 221.232C923.117 216.987 926.561 213.54 930.808 213.54C935.056 213.54 938.5 216.987 938.5 221.232Z"></path>
<path fill="#666666" d="M926.6 260.259C926.6 261.954 925.228 263.319 923.536 263.319C921.844 263.319 920.473 261.954 920.473 260.259C920.473 258.564 921.844 257.199 923.536 257.199C925.228 257.199 926.6 258.564 926.6 260.259Z"></path>
<path fill="#C4D1FF" d="M884.434 297.729C869.913 297.729 858.099 285.916 858.099 271.397V266.041C858.099 265.589 858.466 265.219 858.921 265.219C859.376 265.219 859.744 265.589 859.744 266.041V271.397C859.744 285.003 870.82 296.084 884.434 296.084C884.889 296.084 885.256 296.454 885.256 296.907C885.256 297.359 884.889 297.729 884.434 297.729Z"></path>
<path fill="#FB8266" d="M929.795 172.334C929.795 162.117 921.51 153.833 911.291 153.833C901.072 153.833 892.787 162.117 892.787 172.334C892.787 175.559 893.699 178.743 895.326 181.515C896.148 182.914 897.154 184.172 898.268 185.349C899.331 186.476 900.754 187.208 901.765 188.376C902.638 189.38 902.743 190.597 903.164 191.798C903.68 193.271 905.072 194.258 906.633 194.258H915.962C917.516 194.258 918.903 193.279 919.425 191.815C919.784 190.811 920.03 189.519 920.588 188.614C921.284 187.487 922.841 186.912 923.797 185.999C925.024 184.83 926.111 183.563 927.002 182.116C928.8 179.195 929.795 175.773 929.795 172.334Z"></path>
<path fill="#FFF3E4" d="M916.861 160.784C916.669 160.784 916.475 160.751 916.288 160.669C915.864 160.488 915.426 160.323 914.986 160.192C914.219 159.962 913.787 159.147 914.02 158.382C914.255 157.609 915.067 157.181 915.834 157.411C916.376 157.576 916.914 157.773 917.436 158.004C918.173 158.316 918.513 159.172 918.196 159.912C917.96 160.455 917.424 160.784 916.861 160.784Z"></path>
<path fill="#FFF3E4" d="M925.437 173.79C924.635 173.79 923.985 173.14 923.985 172.334C923.985 168.821 922.573 165.547 920.01 163.12C919.427 162.569 919.402 161.648 919.953 161.072C920.505 160.488 921.424 160.463 922.007 161.014C925.11 163.951 926.889 168.073 926.889 172.334C926.889 173.14 926.239 173.79 925.437 173.79Z"></path>
<path fill="#E66344" d="M907.128 178.332C906.479 178.332 905.829 178.143 905.27 177.773L903.611 176.662C903.25 176.424 903.153 175.93 903.394 175.576C903.634 175.214 904.121 175.115 904.482 175.354L906.141 176.465C906.749 176.868 907.56 176.86 908.157 176.44L909.386 175.568C910.556 174.745 912.122 174.754 913.282 175.593L914.429 176.415C915.027 176.851 915.842 176.868 916.457 176.456L918.255 175.264C918.616 175.025 919.102 175.124 919.342 175.486C919.581 175.848 919.483 176.333 919.122 176.572L917.323 177.764C916.167 178.529 914.634 178.505 913.51 177.69L912.363 176.86C911.746 176.415 910.914 176.407 910.292 176.851L909.062 177.715C908.488 178.126 907.808 178.332 907.128 178.332Z"></path>
<path fill="#E66344" d="M907.21 195.672C906.834 195.672 906.502 195.4 906.437 195.022L903.12 175.229C903.047 174.802 903.336 174.398 903.763 174.324C904.19 174.25 904.594 174.538 904.666 174.966L907.985 194.759C908.056 195.187 907.768 195.59 907.34 195.664L907.21 195.672Z"></path>
<path fill="#E66344" d="M915.41 195.672L915.275 195.664C914.848 195.59 914.562 195.187 914.636 194.759L918.049 175.015C918.122 174.588 918.528 174.3 918.955 174.374C919.381 174.448 919.668 174.859 919.594 175.279L916.181 195.022C916.116 195.409 915.784 195.672 915.41 195.672Z"></path>
<path fill="#CFD1D6" d="M916.716 202.188H905.864C905.175 202.188 904.615 201.629 904.615 200.938V195.509C904.615 194.818 905.175 194.258 905.864 194.258H916.716C917.406 194.258 917.966 194.818 917.966 195.509V200.938C917.966 201.629 917.406 202.188 916.716 202.188Z"></path>
<path fill="#CFD1D6" d="M911.791 205.231H910.789C908.791 205.231 907.171 203.611 907.171 201.612V197.877C907.171 195.878 908.791 194.257 910.789 194.257H911.791C913.789 194.257 915.409 195.878 915.409 197.877V201.612C915.409 203.611 913.789 205.231 911.791 205.231Z"></path>
<path fill="#87A0F9" d="M911.367 150.131C910.9 150.131 910.521 149.752 910.521 149.284V143.657C910.521 143.188 910.9 142.809 911.367 142.809C911.834 142.809 912.214 143.188 912.214 143.657V149.284C912.214 149.752 911.834 150.131 911.367 150.131Z"></path>
<path fill="#87A0F9" d="M923.684 153.891C923.472 153.932 923.243 153.891 923.047 153.767C922.656 153.512 922.546 152.986 922.802 152.591L925.88 147.886C926.136 147.499 926.66 147.384 927.052 147.639C927.444 147.902 927.553 148.42 927.297 148.815L924.22 153.521C924.091 153.718 923.896 153.841 923.684 153.891Z"></path>
<path fill="#87A0F9" d="M935.63 159.937L930.688 162.619C930.276 162.849 929.762 162.693 929.539 162.282C929.316 161.87 929.468 161.36 929.88 161.138L934.822 158.448C935.233 158.226 935.747 158.382 935.97 158.794C936.193 159.205 936.041 159.715 935.63 159.937Z"></path>
<path fill="#87A0F9" d="M899.344 153.891C899.556 153.932 899.785 153.891 899.981 153.767C900.372 153.512 900.482 152.986 900.226 152.591L897.148 147.886C896.892 147.499 896.368 147.384 895.977 147.639C895.585 147.902 895.475 148.42 895.731 148.815L898.808 153.521C898.937 153.718 899.132 153.841 899.344 153.891Z"></path>
<path fill="#87A0F9" d="M887.397 159.937L892.341 162.619C892.751 162.849 893.265 162.693 893.488 162.282C893.712 161.87 893.56 161.36 893.149 161.138L888.206 158.448C887.795 158.226 887.281 158.382 887.058 158.794C886.835 159.205 886.987 159.715 887.397 159.937Z"></path>
<rect fill-opacity="0.2" fill="black" height="600" width="1440"></rect>
</svg>
