<svg xmlns="http://www.w3.org/2000/svg" fill="none" viewBox="0 0 384 320" height="320" width="384">
<path fill="#EFF1F7" d="M90.3198 280.464C136.346 286.523 182.371 292.575 228.397 298.633C253.024 301.877 279.519 313.034 300.364 285.289C303.517 281.091 306.847 273.962 305.595 266.575C304.355 259.275 299.75 258.11 296.063 258.308C260.357 260.202 224.96 242.701 189.259 244.752C172.297 245.734 154.96 245.141 138.251 238.339C128.228 234.264 118.614 247.015 108.31 246.592C101.009 246.299 90.8629 246.667 84.163 253.04C73.1752 263.494 81.8805 279.353 90.3198 280.464Z"></path>
<path fill="#EBF1FF" d="M251.794 230.605H143.622C139.852 230.605 136.794 227.546 136.794 223.777V23.8285C136.794 20.0594 139.852 17.0003 143.622 17.0003H251.794C255.57 17.0003 258.622 20.0594 258.622 23.8285V223.777C258.622 227.546 255.57 230.605 251.794 230.605Z"></path>
<path fill="white" d="M251.548 186.577H151.601V120.317H251.548V186.577Z"></path>
<path fill="#0055FE" d="M191.731 178.157H185.277V128.127H191.731V178.157Z"></path>
<path fill="#9CB0E6" d="M204.802 178.157H198.348V144.72H204.802V178.157Z"></path>
<path fill="#E66344" d="M217.867 178.157H211.413V159.148H217.867V178.157Z"></path>
<path fill="#FB8266" d="M230.938 178.157H224.484V150.64H230.938V178.157Z"></path>
<path fill="#0055FE" d="M173.862 72.9506C165.132 72.9506 158.056 65.8766 158.056 57.1503C158.056 48.4171 165.132 41.3431 173.862 41.3431C182.592 41.3431 189.669 48.4171 189.669 57.1503C189.669 65.8766 182.592 72.9506 173.862 72.9506ZM173.862 31.4901C159.692 31.4901 148.204 42.975 148.204 57.1503C148.204 71.3187 159.692 82.8037 173.862 82.8037C188.032 82.8037 199.52 71.3187 199.52 57.1503C199.52 42.975 188.032 31.4901 173.862 31.4901Z"></path>
<path fill="#FB8266" d="M173.86 31.4883V41.3413C182.59 41.3413 189.667 48.4152 189.667 57.1484H199.518C199.518 42.9732 188.03 31.4883 173.86 31.4883Z"></path>
<path fill="#87A0F9" d="M189.668 57.1503C189.668 65.8766 182.592 72.9506 173.862 72.9506C169.497 72.9506 165.545 71.1822 162.685 68.3212L155.719 75.2927C160.362 79.9359 166.776 82.8037 173.862 82.8037C188.032 82.8037 199.519 71.3187 199.519 57.1503H189.668Z"></path>
<path fill="#0055FE" d="M214.899 40.8711H207.101V33.0733H214.899V40.8711Z"></path>
<path fill="#FB8266" d="M214.899 61.0488H207.101V53.2442H214.899V61.0488Z"></path>
<path fill="#87A0F9" d="M214.899 81.2197H207.101V73.422H214.899V81.2197Z"></path>
<path fill="#BDCAF9" d="M189.69 94.5469H174.959C174.185 94.5469 173.558 93.9187 173.558 93.1403C173.558 92.3687 174.185 91.7405 174.959 91.7405H189.69C190.464 91.7405 191.092 92.3687 191.092 93.1403C191.092 93.9187 190.464 94.5469 189.69 94.5469Z"></path>
<path fill="#BDCAF9" d="M194.719 102.017H168.418C167.644 102.017 167.017 101.388 167.017 100.617C167.017 99.8452 167.644 99.2171 168.418 99.2171H194.719C195.493 99.2171 196.121 99.8452 196.121 100.617C196.121 101.388 195.493 102.017 194.719 102.017Z"></path>
<path fill="#BDCAF9" d="M224.163 94.5469H209.433C208.659 94.5469 208.031 93.9187 208.031 93.1403C208.031 92.3687 208.659 91.7405 209.433 91.7405H224.163C224.938 91.7405 225.565 92.3687 225.565 93.1403C225.565 93.9187 224.938 94.5469 224.163 94.5469Z"></path>
<path fill="#BDCAF9" d="M246.119 94.5469H231.389C230.615 94.5469 229.988 93.9187 229.988 93.1403C229.988 92.3687 230.615 91.7405 231.389 91.7405H246.119C246.898 91.7405 247.519 92.3687 247.519 93.1403C247.519 93.9187 246.898 94.5469 246.119 94.5469Z"></path>
<path fill="#BDCAF9" d="M217.623 102.017H209.433C208.659 102.017 208.031 101.388 208.031 100.617C208.031 99.8452 208.659 99.2171 209.433 99.2171H217.623C218.398 99.2171 219.025 99.8452 219.025 100.617C219.025 101.388 218.398 102.017 217.623 102.017Z"></path>
<path fill="#BDCAF9" d="M251.152 102.017H224.85C224.076 102.017 223.449 101.388 223.449 100.617C223.449 99.8452 224.076 99.2171 224.85 99.2171H251.152C251.924 99.2171 252.552 99.8452 252.552 100.617C252.552 101.388 251.924 102.017 251.152 102.017Z"></path>
<path fill="#BDCAF9" d="M231.254 109.958H209.433C208.659 109.958 208.031 109.337 208.031 108.558C208.031 107.787 208.659 107.158 209.433 107.158H231.254C232.027 107.158 232.655 107.787 232.655 108.558C232.655 109.337 232.027 109.958 231.254 109.958Z"></path>
<path fill="#9CB0E6" d="M245.812 38.3721H222.927C222.153 38.3721 221.525 37.7439 221.525 36.9723C221.525 36.1939 222.153 35.5657 222.927 35.5657H245.812C246.591 35.5657 247.212 36.1939 247.212 36.9723C247.212 37.7439 246.591 38.3721 245.812 38.3721Z"></path>
<path fill="#9CB0E6" d="M245.812 58.5498H222.927C222.153 58.5498 221.525 57.9216 221.525 57.15C221.525 56.3716 222.153 55.7435 222.927 55.7435H245.812C246.591 55.7435 247.212 56.3716 247.212 57.15C247.212 57.9216 246.591 58.5498 245.812 58.5498Z"></path>
<path fill="#9CB0E6" d="M245.812 78.7266H222.927C222.153 78.7266 221.525 78.0984 221.525 77.32C221.525 76.5484 222.153 75.9202 222.927 75.9202H245.812C246.591 75.9202 247.212 76.5484 247.212 77.32C247.212 78.0984 246.591 78.7266 245.812 78.7266Z"></path>
<path fill="#BDCAF9" d="M181.39 199.741H153.002C152.228 199.741 151.601 199.113 151.601 198.335C151.601 197.563 152.228 196.935 153.002 196.935H181.39C182.164 196.935 182.791 197.563 182.791 198.335C182.791 199.113 182.164 199.741 181.39 199.741Z"></path>
<path fill="#BDCAF9" d="M203.345 199.741H188.614C187.84 199.741 187.213 199.113 187.213 198.335C187.213 197.563 187.84 196.935 188.614 196.935H203.345C204.119 196.935 204.747 197.563 204.747 198.335C204.747 199.113 204.119 199.741 203.345 199.741Z"></path>
<path fill="#BDCAF9" d="M208.375 207.212H182.075C181.3 207.212 180.673 206.584 180.673 205.812C180.673 205.041 181.3 204.412 182.075 204.412H208.375C209.15 204.412 209.777 205.041 209.777 205.812C209.777 206.584 209.15 207.212 208.375 207.212Z"></path>
<path fill="#BDCAF9" d="M188.479 215.154H153.002C152.228 215.154 151.601 214.526 151.601 213.755C151.601 212.983 152.228 212.355 153.002 212.355H188.479C189.254 212.355 189.881 212.983 189.881 213.755C189.881 214.526 189.254 215.154 188.479 215.154Z"></path>
<path fill="#BDCAF9" d="M239.564 199.741H211.178C210.404 199.741 209.777 199.113 209.777 198.335C209.777 197.563 210.404 196.935 211.178 196.935H239.564C240.343 196.935 240.964 197.563 240.964 198.335C240.964 199.113 240.343 199.741 239.564 199.741Z"></path>
<path fill="#BDCAF9" d="M237.892 207.212H216.044C215.27 207.212 214.643 206.584 214.643 205.812C214.643 205.041 215.27 204.412 216.044 204.412H237.892C238.664 204.412 239.292 205.041 239.292 205.812C239.292 206.584 238.664 207.212 237.892 207.212Z"></path>
<path fill="#BDCAF9" d="M231.202 215.154H195.725C194.951 215.154 194.324 214.526 194.324 213.755C194.324 212.983 194.951 212.355 195.725 212.355H231.202C231.977 212.355 232.604 212.983 232.604 213.755C232.604 214.526 231.977 215.154 231.202 215.154Z"></path>
<path fill="#666666" d="M234.107 271.029C232.382 271.951 226.134 276.457 224.392 276.662C222.651 276.867 222.958 279.428 226.953 279.223C230.948 279.018 238.832 277.379 242.52 276.969C246.207 276.56 248.269 276.942 247.135 271.473L234.107 271.029Z"></path>
<path fill="#666666" d="M265.676 271.814C265.676 271.814 261.142 275.091 258.588 275.986C256.028 276.88 254.423 279.086 258.588 279.222C262.747 279.366 267.916 277.912 271.924 277.912C275.932 277.912 281.353 277.734 281.142 275.085C280.923 272.435 280.316 270.12 280.316 270.12L265.676 271.814Z"></path>
<path fill="#3D3D3D" d="M237.433 153.523C237.433 153.523 232.359 190.798 231.9 222.521C231.44 254.252 231.9 270.81 231.9 270.81C231.9 270.81 245.682 272.421 253.391 270.81L255.221 226.666L261.1 271.527C261.1 271.527 272.134 274.026 285.469 269.656C285.469 269.656 280.417 226.666 277.426 210.108C274.435 193.556 268.891 155.175 268.891 155.175L237.433 153.523Z"></path>
<path fill="#FAAEB1" d="M207.664 124.202C207.664 124.202 208.275 123.335 207.664 119.306C207.054 115.271 206.65 114.847 205.44 114.745C204.23 114.636 204.752 118.671 203.965 118.596C203.177 118.528 202.104 113.372 199.529 113.441C196.952 113.516 192.659 114.806 193.66 118.022C194.663 121.245 198.408 127.752 202.939 128.217L207.257 126.612L207.664 124.202Z"></path>
<path fill="#FAAEB1" d="M293.677 168.879C293.677 168.879 292.345 171.849 292.345 174.471C292.345 177.1 291.43 179.21 292.632 178.923C293.827 178.636 294.626 175.044 295.541 174.812C296.449 174.587 296.169 180.917 298.62 181.033C301.071 181.149 308.535 177.038 305.121 172.347C301.706 167.656 299.999 166.352 299.999 166.352L295.302 167.486L293.677 168.879Z"></path>
<path fill="#3D3D3D" d="M242.186 88.012C243.64 81.334 237.085 80.064 242.964 73.5568C248.843 67.0496 261.366 67.1521 263.647 71.6996C263.647 71.6996 268.297 68.3402 273.206 74.1577C278.116 79.9685 271.656 85.6563 277.604 90.8252C283.551 96.001 290.659 103.362 286.781 111.378C282.902 119.394 269.976 124.563 257.959 122.883C245.935 121.204 238.314 115.386 238.185 105.69C238.055 96.0009 241.155 92.778 242.186 88.012Z"></path>
<path fill="#FAAEB1" d="M245.497 82.8987C245.497 82.8987 244.589 89.2694 245.497 94.609C246.412 99.9486 247.068 100.816 251.096 102.673C255.125 104.523 257.631 104.196 262.103 99.7301C266.569 95.2645 266.023 90.355 266.023 88.286C266.023 86.2171 264.93 77.7229 264.93 77.7229L259.379 75.1077L245.497 82.8987Z"></path>
<path fill="#FAAEB1" d="M264.821 87.5272C264.821 87.5272 266.569 83.9288 268.857 85.0213C271.144 86.107 272.448 94.2803 264.821 94.2803V87.5272Z"></path>
<path fill="#3D3D3D" d="M250.203 93.3457L250.141 93.3388C248.079 92.9632 248.052 91.5089 248.052 91.4474C248.052 91.345 248.093 91.2494 248.175 91.1811C249.984 89.6721 249.861 87.2139 249.861 87.1866C249.848 87.0023 249.991 86.8385 250.182 86.8248C250.36 86.8043 250.53 86.9545 250.544 87.1457C250.551 87.2549 250.687 89.8428 248.755 91.5772C248.823 91.8571 249.11 92.458 250.264 92.6697C250.448 92.7038 250.571 92.8813 250.537 93.0656C250.51 93.2295 250.367 93.3457 250.203 93.3457Z"></path>
<path fill="#3D3D3D" d="M256.744 89.8896C256.553 89.8896 256.402 89.7326 256.402 89.5482V86.2913C256.402 86.1001 256.553 85.9499 256.744 85.9499C256.928 85.9499 257.085 86.1001 257.085 86.2913V89.5482C257.085 89.7326 256.928 89.8896 256.744 89.8896Z"></path>
<path fill="#3D3D3D" d="M247.723 89.8896C247.553 89.8896 247.402 89.7599 247.389 89.5824C247.293 88.6674 247.382 86.5575 247.389 86.4688C247.396 86.2776 247.532 86.1274 247.744 86.1411C247.928 86.1479 248.078 86.3118 248.072 86.4961C248.065 86.5166 247.976 88.6469 248.065 89.5141C248.085 89.6985 247.949 89.8692 247.764 89.8828L247.723 89.8896Z"></path>
<path fill="#3D3D3D" d="M260.547 77.0328C260.547 77.0328 256.279 86.8038 245.218 85.7523L245.095 80.0645L259.741 73.5573L267.32 76.8553C267.32 76.8553 267.901 87.5482 266.965 87.9169C266.023 88.2856 260.362 83.8951 260.547 77.0328Z"></path>
<path fill="#FAAEB1" d="M252.313 100.824L251.603 116.508H262.746L261.613 97.2115L252.313 100.824Z"></path>
<path fill="#E66344" d="M253.391 114.22C253.391 114.22 261.742 109.242 261.94 102.776C261.94 102.776 265.696 103.868 267.007 108.498C267.007 108.498 295.603 129.446 300.581 165.185C300.581 165.185 299.761 168.879 293.677 168.879C293.677 168.879 289.116 156.097 272.135 145.465C272.135 145.465 270.817 153.522 268.891 155.175C266.966 156.827 243.648 157.824 237.434 153.522C234.361 151.392 237.434 149.248 234.361 141.45C234.361 141.45 230.817 145.936 222.075 145.936C213.335 145.936 202.939 128.217 202.939 128.217C202.939 128.217 204.121 127.985 207.665 124.202C207.665 124.202 213.571 128.634 222.075 127.009C230.58 125.384 236.068 114.602 245.614 110.266C245.614 110.266 247.977 105.8 252.155 104.36C252.155 104.36 251.773 111.932 253.391 114.22Z"></path>
<path fill="#BDCAF9" d="M234.362 141.791C234.219 141.791 234.089 141.702 234.041 141.559C231.977 135.584 231.397 132.184 234.97 126.824C238.241 121.914 238.678 120.48 238.678 120.467C238.732 120.289 238.917 120.18 239.101 120.234C239.279 120.282 239.388 120.467 239.34 120.651C239.32 120.706 238.91 122.14 235.537 127.199C232.332 132.013 232.527 135.086 234.683 141.34C234.745 141.518 234.649 141.709 234.472 141.77L234.362 141.791Z"></path>
<path fill="#BDCAF9" d="M263.647 121.327H263.606C262.076 121.15 260.984 119.566 259.823 117.893C259.092 116.834 258.334 115.742 257.488 115.086C255.507 113.543 253.568 114.513 253.548 114.52C253.438 114.574 253.309 114.574 253.206 114.506C252.223 113.871 251.301 113.734 250.4 114.076C247.553 115.148 245.955 120.603 245.941 120.658C245.907 120.774 245.811 120.863 245.688 120.89C245.572 120.917 245.443 120.883 245.361 120.788C242.855 118.036 244.009 113.857 245.286 110.15C245.347 109.972 245.545 109.883 245.723 109.938C245.9 110.006 245.996 110.197 245.934 110.375C244.794 113.673 243.749 117.36 245.484 119.852C246.009 118.316 247.573 114.41 250.154 113.434C251.212 113.038 252.312 113.174 253.418 113.83C254.012 113.591 255.938 113.011 257.911 114.547C258.839 115.264 259.625 116.404 260.39 117.503C261.414 118.985 262.383 120.385 263.537 120.624C264.118 120.057 266.945 116.848 266.665 108.511C266.658 108.32 266.808 108.162 266.999 108.156C267.211 108.162 267.341 108.299 267.347 108.483C267.668 118.118 264.008 121.136 263.858 121.259C263.797 121.307 263.722 121.327 263.647 121.327Z"></path>
<path fill="#BDCAF9" d="M248.743 156.643L248.647 156.629C246.79 156.076 247.049 154.048 247.384 151.487C247.623 149.623 247.896 147.52 247.514 145.349C246.64 140.344 245.882 136.022 248.313 129.405C250.621 123.116 253.038 114.219 253.065 114.13C253.113 113.946 253.304 113.844 253.482 113.891C253.666 113.939 253.775 114.124 253.721 114.308C253.7 114.397 251.276 123.321 248.955 129.644C246.585 136.083 247.329 140.323 248.183 145.226C248.586 147.5 248.292 149.76 248.06 151.569C247.719 154.212 247.596 155.605 248.838 155.973C249.023 156.028 249.125 156.219 249.071 156.397C249.023 156.547 248.893 156.643 248.743 156.643Z"></path>
<path fill="#BDCAF9" d="M257.741 128.866C257.502 130.101 256.594 134.929 256.594 136.547C256.594 138.063 259.783 139.606 260.984 140.187L261.333 140.357C262.173 140.774 266.119 139.845 267.656 138.172C269.048 136.65 269.786 131.092 269.868 129.89C268.857 129.555 263.053 129.125 257.741 128.866ZM261.968 141.129C261.572 141.129 261.244 141.074 261.032 140.965L260.691 140.801C259.257 140.112 255.911 138.493 255.911 136.547C255.911 134.629 257.072 128.695 257.127 128.442C257.154 128.278 257.311 128.149 257.475 128.169C270.558 128.791 270.558 129.344 270.558 129.712C270.558 130.142 269.888 136.738 268.154 138.63C266.768 140.146 263.688 141.129 261.968 141.129Z"></path>
<path fill="#BDCAF9" d="M272.135 145.807H272.121C271.93 145.8 271.786 145.643 271.793 145.452C271.868 143.437 272.333 140.003 272.783 136.671C273.186 133.673 273.609 130.566 273.746 128.49C273.76 128.299 273.93 128.156 274.115 128.17C274.299 128.183 274.442 128.347 274.429 128.531C274.285 130.641 273.869 133.755 273.459 136.766C273.015 140.078 272.551 143.499 272.476 145.479C272.469 145.663 272.312 145.807 272.135 145.807Z"></path>
<path fill="#ABBEFF" d="M255.222 227.008C255.044 227.008 254.901 226.871 254.881 226.701C252.969 207.609 251.146 191.911 251.125 191.754C251.105 191.57 251.241 191.399 251.425 191.378C251.61 191.358 251.781 191.488 251.808 191.672C251.822 191.829 253.645 207.534 255.563 226.632C255.577 226.817 255.44 226.987 255.256 227.001L255.222 227.008Z"></path>
<path fill="#FB8266" d="M250.203 94.9165C250.203 94.9165 252.108 94.5068 256.205 94.5478C256.205 94.5478 257.27 100.543 254.041 100.816C250.818 101.096 250.203 94.9165 250.203 94.9165Z"></path>
<path fill="#ABBEFF" d="M254.531 159.544C248.659 159.544 242.247 158.895 237.952 156.601C237.782 156.512 237.72 156.307 237.809 156.137C237.898 155.973 238.103 155.911 238.273 156C247.751 161.06 268.604 157.81 268.809 157.775C269 157.741 269.171 157.871 269.205 158.055C269.232 158.24 269.102 158.417 268.918 158.445C268.44 158.526 261.906 159.544 254.531 159.544Z"></path>
<path fill="#ABBEFF" d="M251.465 173.14H248.734C248.549 173.14 248.399 172.989 248.392 172.812L247.88 158.917C247.873 158.725 248.017 158.568 248.208 158.562H248.222C248.406 158.562 248.556 158.705 248.563 158.889L249.061 172.457H251.11L250.714 159.196C250.707 159.012 250.857 158.848 251.048 158.848C251.219 158.841 251.39 158.985 251.397 159.176L251.806 172.785C251.806 172.88 251.772 172.969 251.711 173.037C251.642 173.099 251.554 173.14 251.465 173.14Z"></path>
<path fill="#ABBEFF" d="M271.069 169.662L270.919 169.628C270.523 169.43 261.264 164.671 260.772 159.215C260.752 159.031 260.895 158.86 261.08 158.846C261.257 158.833 261.435 158.969 261.448 159.154C261.913 164.241 271.131 168.972 271.226 169.02C271.39 169.102 271.459 169.307 271.377 169.478C271.315 169.594 271.192 169.662 271.069 169.662Z"></path>
<path fill="#ABBEFF" d="M236.628 166.653C236.471 166.653 236.328 166.544 236.293 166.387C236.252 166.203 236.368 166.025 236.553 165.977C241.346 164.864 241.455 157.811 241.455 157.743C241.455 157.551 241.612 157.401 241.797 157.401H241.804C241.988 157.401 242.138 157.558 242.138 157.749C242.138 158.057 242.022 165.411 236.703 166.647L236.628 166.653Z"></path>
<path fill="#87A0F9" d="M180.195 178.253H173.741V158.158H180.195V178.253Z"></path>
</svg>
